<?xml version="1.0" standalone="no"?><!-- Generator: Gravit.io --><svg xmlns="http://www.w3.org/2000/svg" xmlns:xlink="http://www.w3.org/1999/xlink" style="isolation:isolate" viewBox="440 197.6 788 686.4" width="788" height="686.4"><defs><clipPath id="_clipPath_RLg8QWfrXCQX6TW5fDYO32FzftfYeOar"><rect x="440" y="197.6" width="788" height="686.4"/></clipPath></defs><g clip-path="url(#_clipPath_RLg8QWfrXCQX6TW5fDYO32FzftfYeOar)"><path d="M 462.4 229 L 1205.6 229 C 1217.963 229 1228 239.037 1228 251.4 L 1228 407.6 C 1228 419.963 1217.963 430 1205.6 430 L 462.4 430 C 450.037 430 440 419.963 440 407.6 L 440 251.4 C 440 239.037 450.037 229 462.4 229 Z" style="stroke:none;fill:#4D1B6F;stroke-miterlimit:10;"/><path d="M 678.838 496 L 1023.162 496 C 1035.215 496 1045 505.785 1045 517.838 L 1045 862.162 C 1045 874.215 1035.215 884 1023.162 884 L 678.838 884 C 666.785 884 657 874.215 657 862.162 L 657 517.838 C 657 505.785 666.785 496 678.838 496 Z" style="stroke:none;fill:#4D1B6F;stroke-miterlimit:10;"/><g transform="matrix(1,0,0,1,698.5,399.2)"><text transform="matrix(1,0,0,1,2,390.4)" style="font-family:'Amaranth';font-weight:400;font-size:400px;font-style:italic;fill:#c8e6ac;stroke:none;">.</text><text transform="matrix(1,0,0,1,94.4,390.4)" style="font-family:'Amaranth';font-weight:400;font-size:400px;font-style:italic;fill:#ffffff;stroke:none;">v</text></g><g transform="matrix(1,0,0,1,499.5,197.6)"><text transform="matrix(1,0,0,1,1,195.2)" style="font-family:'Amaranth';font-weight:400;font-size:200px;font-style:italic;fill:#ffffff;stroke:none;">.vexpr</text><text transform="matrix(1,0,0,1,520,195.2)" style="font-family:'Amaranth';font-weight:400;font-size:200px;font-style:italic;fill:#c8e6ac;stroke:none;">el</text></g></g></svg>